<svg xmlns="http://www.w3.org/2000/svg" viewBox="0 0 24 24"> <path d="M12,3.3l2.45-1.63,1.11,1.66-2.55,1.7v5.23l4.53-2.62.2-3.06,2,.13-.19,2.93,2.63,1.3-.89,1.79-2.75-1.36-4.53,2.62,4.53,2.62,2.75-1.36.89,1.79-2.63,1.3.19,2.93-2,.13-.2-3.06-4.53-2.62v5.23l2.55,1.7-1.11,1.66-2.45-1.63-2.45,1.63-1.11-1.66,2.55-1.7v-5.23l-4.53,2.62-.2,3.06-2-.13.19-2.93-2.63-1.3.89-1.79,2.75,1.36,4.53-2.62-4.53-2.62-2.75,1.36-.89-1.79,2.63-1.3-.19-2.93,2-.13.2,3.06,4.53,2.62v-5.23l-2.55-1.7,1.11-1.66,2.45,1.63Z"/> </svg>
